<?xml version="1.0" standalone="no"?>
<!DOCTYPE svg PUBLIC "-//W3C//DTD SVG 20010904//EN"
 "http://www.w3.org/TR/2001/REC-SVG-20010904/DTD/svg10.dtd">
<svg version="1.0" xmlns="http://www.w3.org/2000/svg"
 width="360.000000pt" height="360.000000pt" viewBox="0 0 360.000000 360.000000"
 preserveAspectRatio="xMidYMid meet">
<metadata>
Created by potrace 1.11, written by Peter Selinger 2001-2013
</metadata>
<g transform="translate(0.000000,360.000000) scale(0.100000,-0.100000)"
fill="#000000" stroke="none">
<path d="M1878 3595 c-2 -1 -27 -6 -56 -9 -30 -3 -73 -11 -95 -16 -23 -5 -53
-11 -67 -13 -148 -28 -566 -233 -558 -275 4 -22 150 -138 290 -231 123 -83
263 -158 389 -210 42 -18 84 -40 92 -49 21 -23 28 -68 17 -98 -6 -13 -12 -37
-16 -52 -11 -47 -13 -274 -3 -352 14 -115 51 -269 70 -294 14 -18 62 -36 131
-50 57 -11 96 -19 113 -22 128 -24 353 -21 445 6 93 27 120 9 171 -115 52
-125 125 -260 206 -383 42 -62 81 -118 87 -125 6 -7 32 -39 58 -72 57 -74 87
-102 96 -89 7 10 68 106 89 140 156 253 240 606 212 895 -8 87 -17 148 -24
159 -2 3 -7 22 -10 41 -20 111 -142 355 -250 501 -70 93 -240 270 -345 360
-193 165 -422 283 -650 335 -55 13 -381 28 -392 18z"/>
<path d="M1004 3061 c-181 -99 -387 -301 -482 -471 -97 -176 -158 -330 -139
-353 20 -25 105 -78 181 -113 233 -107 526 -88 792 52 102 54 293 184 314 214
23 33 28 55 34 156 3 44 8 88 11 96 9 23 -11 55 -37 64 -25 7 -170 78 -231
113 -86 48 -308 202 -345 238 -32 31 -47 32 -98 4z"/>
<path d="M1606 2140 c-158 -108 -323 -189 -421 -207 -49 -9 -90 -48 -142 -135
-65 -107 -101 -205 -129 -353 -27 -145 -21 -452 9 -482 23 -23 242 -34 387
-19 214 21 426 101 520 196 39 39 47 55 62 118 21 92 101 254 195 394 39 59
68 110 65 112 -4 2 -25 7 -47 10 -46 7 -207 49 -247 65 -56 21 -90 97 -125
278 -10 51 -20 92 -23 92 -3 -1 -50 -32 -104 -69z"/>
<path d="M408 1963 c-44 -35 -208 -203 -208 -214 0 -4 -6 -14 -13 -21 -23 -23
-84 -131 -112 -198 -45 -106 -65 -189 -72 -291 -6 -96 -6 -97 20 -114 27 -17
98 -41 152 -51 99 -18 140 -22 230 -19 55 1 120 8 145 14 79 21 180 62 181 74
0 7 2 55 4 108 2 86 10 174 20 219 2 8 8 39 14 67 16 83 59 201 100 281 l38
72 -51 0 c-104 1 -252 34 -345 76 -29 13 -57 24 -61 24 -5 0 -23 -12 -42 -27z"/>
<path d="M2588 1754 c-3 -3 -46 -7 -95 -9 -137 -5 -150 -14 -256 -173 -122
-183 -171 -289 -208 -455 -36 -162 -22 -334 39 -486 35 -87 118 -211 142 -211
66 0 388 161 466 233 7 7 41 37 76 67 35 30 88 83 118 118 58 66 170 236 170
257 0 7 -20 37 -44 66 -108 134 -260 379 -316 511 -17 40 -36 76 -43 80 -14 9
-41 10 -49 2z"/>
<path d="M670 935 c-94 -33 -146 -39 -322 -39 -149 0 -157 -1 -167 -20 -69
-141 -91 -244 -91 -429 -1 -81 1 -151 4 -155 2 -4 7 -31 10 -61 3 -30 10 -59
16 -65 18 -18 182 -34 320 -31 152 3 241 22 353 75 l67 31 -6 37 c-22 146 1
356 52 477 11 27 11 35 2 36 -110 7 -153 48 -157 152 -1 20 2 20 -81 -8z"/>
<path d="M1770 910 c-67 -35 -163 -72 -216 -85 -151 -36 -230 -46 -372 -49
-93 -1 -90 1 -123 -86 -70 -182 -62 -438 19 -617 l14 -33 92 5 c169 8 334 67
493 177 75 52 200 169 249 234 l26 34 -20 43 c-21 44 -57 158 -67 212 -4 17
-9 68 -12 115 -3 47 -6 86 -7 86 0 1 -35 -15 -76 -36z"/>
</g>
</svg>
